<svg version="1.1" id="Capa_1" xmlns="http://www.w3.org/2000/svg" xmlns:xlink="http://www.w3.org/1999/xlink" x="0px" y="0px" viewBox="0 0 64 64" style="enable-background:new 0 0 312.85 312.85;" xml:space="preserve" width="80" height="80"><style>#ld_icon_box_5c496db22efb0:hover .iconbox-icon-container defs stop:first-child{stop-color:rgb(255, 255, 255);}#ld_icon_box_5c496db22efb0:hover .iconbox-icon-container defs stop:last-child{stop-color:rgb(255, 255, 255);}</style><defs xmlns="http://www.w3.org/2000/svg"><linearGradient gradientUnits="userSpaceOnUse" id="grad963572" x1="0%" y1="0%" x2="0%" y2="100%"><stop offset="0%" stop-color="rgb(41, 54, 92)"></stop><stop offset="100%" stop-color="rgb(41, 54, 92)"></stop></linearGradient></defs>
                                            <g>
                                                <path d="M29.912 0.03c-0.678 -0.139 -1.357 0.219 -1.628 0.855l-9.864 23.147c-3.041 6.722 -0.235 14.771 0.964 17.632l-11.837 9.811c-0.302 0.251 -0.49 0.613 -0.522 1.004c-0.031 0.391 0.098 0.779 0.357 1.074l8.735 9.952c0.277 0.315 0.676 0.495 1.093 0.495c0.024 0 0.049 -0.001 0.074 -0.002c0.444 -0.023 0.853 -0.246 1.11 -0.608l12.392 -17.391c0.175 -0.246 0.27 -0.541 0.27 -0.843l0.001 -2.074c0.004 -8.836 0.019 -39.987 0.019 -41.627C31.074 0.763 30.589 0.168 29.912 0.03z" fill="none" stroke="url(#grad963572)" stroke-width="2" stroke-miterlimit="10" style="stroke-dasharray: 147, 149; stroke-dashoffset: 0;"></path>
                                                <path d="M56.975 52.479c-0.031 -0.391 -0.219 -0.754 -0.522 -1.004l-11.837 -9.811c1.199 -2.861 4.006 -10.91 0.964 -17.632L35.717 0.884c-0.271 -0.636 -0.951 -0.994 -1.628 -0.855c-0.677 0.138 -1.163 0.734 -1.163 1.425c0 1.64 0.015 32.791 0.019 41.627l0.001 2.074c0 0.302 0.094 0.597 0.27 0.843l12.392 17.391c0.258 0.362 0.667 0.586 1.11 0.608c0.025 0.001 0.049 0.002 0.074 0.002c0.417 0 0.816 -0.179 1.093 -0.495l8.735 -9.952C56.877 53.258 57.006 52.87 56.975 52.479z" fill="none" stroke="url(#grad963572)" stroke-width="2" stroke-miterlimit="10" style="stroke-dasharray: 147, 149; stroke-dashoffset: 0;"></path>
                                            </g>
                                        </svg>