<svg viewBox="0 0 500 500" xmlns="http://www.w3.org/2000/svg"><style>#ld_icon_box_5c496db22efb1:hover .iconbox-icon-container defs stop:first-child{stop-color:rgb(255, 255, 255);}#ld_icon_box_5c496db22efb1:hover .iconbox-icon-container defs stop:last-child{stop-color:rgb(255, 255, 255);}</style><defs xmlns="http://www.w3.org/2000/svg"><linearGradient gradientUnits="userSpaceOnUse" id="grad707693" x1="0%" y1="0%" x2="0%" y2="100%"><stop offset="0%" stop-color="rgb(41, 54, 92)"></stop><stop offset="100%" stop-color="rgb(41, 54, 92)"></stop></linearGradient></defs>
                                            <defs></defs>
                                            <g transform="matrix(4.147874, 0, 0, 4.147874, 118.144661, 68.923248)">
                                                <path d="M 29.652 -15.019 C 28.731 -15.209 27.808 -14.722 27.441 -13.858 L 14.039 17.59 C 9.908 26.722 13.72 37.657 15.349 41.545 L 4.701 98.349 C 4.291 98.69 4.036 99.182 3.992 99.713 C 3.95 100.245 4.126 100.772 4.477 101.172 L 27.213 98.391 C 27.59 98.818 28.132 99.063 28.699 99.063 C 28.731 99.063 28.765 99.062 28.799 99.06 C 29.402 99.028 29.958 98.726 30.307 98.234 L 25.174 50.626 C 25.412 50.291 31.207 46.699 31.207 46.289 L 31.208 43.472 C 31.214 31.466 31.234 -10.856 31.234 -13.084 C 31.231 -14.024 30.573 -14.832 29.652 -15.019 Z" fill="none" stroke="url(#grad707693)" stroke-width="4" stroke-miterlimit="10" style="stroke-dasharray: 267, 269; stroke-dashoffset: 0;"></path>
                                                <path d="M 58.268 99.713 C 58.227 99.182 57.971 98.689 57.559 98.349 L 49.63 41.545 C 51.258 37.657 55.072 26.722 50.94 17.59 L 37.539 -13.859 C 37.17 -14.724 36.247 -15.21 35.328 -15.022 C 34.407 -14.833 33.747 -14.024 33.747 -13.085 C 33.747 -10.857 33.768 31.465 33.773 43.469 L 33.774 46.287 C 33.774 46.698 39.436 50.261 39.675 50.596 L 33.315 98.232 C 33.665 98.724 34.221 99.028 34.823 99.058 C 34.857 99.06 34.89 99.062 34.923 99.062 C 35.491 99.062 36.032 98.818 36.409 98.388 L 57.787 101.171 C 58.136 100.772 58.311 100.245 58.268 99.713 Z" fill="none" stroke="url(#grad707693)" stroke-width="4" stroke-miterlimit="10" style="stroke-dasharray: 265, 267; stroke-dashoffset: 0;"></path>
                                            </g>
                                        </svg>